<svg width="136" height="44" viewBox="0 0 136 44" fill="none" xmlns="http://www.w3.org/2000/svg" class="mobile">
<g clip-path="url(#clip0_1196_4078)">
<path d="M22.7546 38.4947H23.9865L23.8168 39.2999C23.9838 39.0096 24.1836 38.7905 24.4191 38.6426C24.6545 38.4947 24.9173 38.418 25.2048 38.418C25.6318 38.418 25.9521 38.5522 26.1657 38.8179C26.3792 39.0836 26.486 39.4342 26.486 39.8724C26.486 40.0669 26.4641 40.2723 26.423 40.4859L26.4148 40.5216C26.3108 41.031 26.1054 41.4337 25.7988 41.7322C25.4922 42.0308 25.1172 42.1814 24.6709 42.1814C24.3534 42.1814 24.0905 42.102 23.8852 41.9404C23.6799 41.7788 23.543 41.5542 23.4773 41.2638L23.4691 41.3487L23.0283 43.4496H21.7115L22.7573 38.5001L22.7546 38.4947ZM23.8496 41.0748C23.9537 41.2008 24.1015 41.2638 24.2904 41.2638C24.4793 41.2638 24.6381 41.2036 24.764 41.0858C24.8899 40.968 24.9775 40.7955 25.0241 40.5736L25.1226 40.097C25.1418 40.0203 25.15 39.9409 25.15 39.856C25.15 39.6861 25.1035 39.5519 25.0159 39.4561C24.9283 39.3602 24.7969 39.3136 24.6326 39.3136C24.4519 39.3136 24.2904 39.3684 24.148 39.4807C24.0057 39.593 23.8934 39.7409 23.814 39.9299C23.7347 40.1189 23.6936 40.3216 23.6936 40.538V40.5517C23.6936 40.7763 23.7456 40.9488 23.8496 41.0748Z" fill="black"></path>
<path d="M27.7425 37.0347H29.0593L27.9834 42.0909H26.6666L27.7425 37.0347Z" fill="black"></path>
<path d="M28.8184 40.9595C28.865 40.7322 28.9827 40.5432 29.1661 40.398C29.3523 40.2501 29.5959 40.157 29.8998 40.1132L31.4301 39.9077L31.4657 39.7516C31.4739 39.6941 31.4794 39.653 31.4794 39.6229C31.4794 39.5078 31.4383 39.4202 31.3589 39.3599C31.2796 39.2997 31.1591 39.2668 31.0031 39.2668C30.847 39.2668 30.6964 39.3079 30.5678 39.3928C30.4391 39.475 30.346 39.6064 30.2831 39.7817H29.1579C29.2482 39.3462 29.4645 39.0066 29.8094 38.771C30.1544 38.5327 30.5842 38.4149 31.1016 38.4149C31.619 38.4149 32.0516 38.5108 32.3445 38.7025C32.6374 38.8943 32.7825 39.1654 32.7825 39.5188C32.7825 39.6037 32.7716 39.7023 32.7469 39.8119L32.2624 42.099H31.0523L31.1865 41.458C31.0715 41.6771 30.8963 41.8524 30.6609 41.9839C30.4254 42.1154 30.1544 42.1839 29.8505 42.1839C29.5193 42.1839 29.2564 42.099 29.0676 41.9264C28.8787 41.7566 28.7828 41.532 28.7828 41.2581C28.7828 41.1622 28.791 41.0773 28.8102 41.0006L28.8184 40.965V40.9595ZM30.0859 41.0937C30.0859 41.1923 30.1188 41.2718 30.1845 41.3293C30.2502 41.3868 30.3433 41.4142 30.461 41.4142C30.6499 41.4142 30.8169 41.3622 30.9593 41.2581C31.1016 41.154 31.192 41.017 31.2303 40.8527L31.3015 40.524L30.5541 40.639C30.4172 40.6637 30.3104 40.7048 30.2338 40.7678C30.1571 40.8308 30.1133 40.8965 30.0996 40.9677L30.0914 41.0033C30.0859 41.0225 30.0832 41.0526 30.0832 41.0965L30.0859 41.0937ZM31.0386 36.9852C31.0386 37.1468 31.0742 37.2673 31.1427 37.344C31.2111 37.4234 31.3206 37.4618 31.4657 37.4618C31.6327 37.4618 31.7696 37.407 31.8764 37.2974C31.9831 37.1879 32.0707 37.0235 32.1364 36.8071H32.9413C32.8318 37.2536 32.6402 37.596 32.3637 37.837C32.0872 38.078 31.7669 38.1958 31.3945 38.1958C31.0469 38.1958 30.7731 38.1 30.5678 37.911C30.3625 37.722 30.2612 37.4618 30.2612 37.1358C30.2612 37.0454 30.2721 36.9359 30.2967 36.8071H31.0523C31.0441 36.892 31.0386 36.9523 31.0386 36.9852Z" fill="black"></path>
<path d="M33.7407 41.8991C33.5902 41.7704 33.5162 41.5841 33.5162 41.3376C33.5162 41.2609 33.5272 41.1596 33.5518 41.0309L33.9159 39.3217H33.1823L33.3602 38.4945H34.0857L34.2992 37.4756H35.616L35.4025 38.4945H36.3278L36.1498 39.3217H35.2245L34.8768 40.9679C34.8714 40.987 34.8686 41.0117 34.8686 41.0391C34.8686 41.1541 34.9316 41.2089 35.0548 41.2089H35.7803L35.5941 42.0909H34.3978C34.1076 42.0909 33.8886 42.0279 33.7407 41.8991ZM33.8092 42.4196H35.1479L34.2855 44H33.2671L33.8092 42.4196Z" fill="black"></path>
<path d="M36.9108 38.4946H38.2276L37.4666 42.091H36.1498L36.9108 38.4946ZM37.1956 37.0703H38.5562L38.3289 38.1029H36.9765L37.1983 37.0703H37.1956Z" fill="black"></path>
<path d="M40.5136 38.4946H41.8304L41.0694 42.091H39.7526L40.5136 38.4946ZM40.7983 37.0703H42.1589L41.9317 38.1029H40.5793L40.8011 37.0703H40.7983Z" fill="black"></path>
<path d="M42.5969 38.4945H43.8289L43.6646 39.256C43.807 38.9957 44.0013 38.7876 44.2477 38.6314C44.4941 38.4781 44.7624 38.4014 45.0526 38.4014C45.3811 38.4014 45.6384 38.4918 45.8246 38.6753C46.0108 38.8588 46.1066 39.1026 46.1066 39.4066C46.1066 39.4915 46.0956 39.5983 46.071 39.7271L45.5645 42.0909H44.2477L44.7022 39.9626C44.7104 39.8969 44.7159 39.8503 44.7159 39.8284C44.7159 39.7134 44.6803 39.6257 44.6118 39.5655C44.5434 39.5052 44.4448 39.4723 44.3162 39.4723C44.13 39.4723 43.9712 39.5271 43.8398 39.6312C43.7057 39.738 43.6181 39.8832 43.577 40.0694L43.1499 42.0909H41.8331L42.5942 38.4945H42.5969Z" fill="black"></path>
<path d="M46.8676 41.8745C46.5555 41.669 46.3775 41.376 46.3337 40.9952H47.4288C47.4671 41.1295 47.5547 41.2335 47.6971 41.3075C47.8367 41.3842 48.0146 41.4225 48.2282 41.4225C48.3979 41.4225 48.543 41.3979 48.658 41.3431C48.773 41.2911 48.8414 41.2226 48.8606 41.1377L48.8688 41.1021C48.9016 40.9596 48.8168 40.8747 48.6115 40.8446L47.8559 40.7296C47.4562 40.6666 47.1578 40.5543 46.9579 40.3872C46.7581 40.2201 46.6595 39.9982 46.6595 39.7188C46.6595 39.6148 46.6677 39.5162 46.6869 39.4258L46.6951 39.3902C46.7581 39.0861 46.9388 38.8451 47.2399 38.6671C47.541 38.489 47.9353 38.4014 48.4253 38.4014C48.9153 38.4014 49.3314 38.5 49.6463 38.6999C49.9611 38.8999 50.1445 39.1957 50.1993 39.5901H49.096C49.0577 39.4614 48.9756 39.36 48.8469 39.2833C48.7182 39.2066 48.5649 39.1683 48.3842 39.1683C48.2337 39.1683 48.0995 39.193 47.99 39.2395C47.8778 39.2861 47.8121 39.3518 47.7956 39.4313L47.7874 39.4669C47.76 39.6038 47.8449 39.6887 48.0448 39.7161L48.7702 39.8229C49.5915 39.9462 50.0022 40.2858 50.0022 40.8419C50.0022 40.9213 49.9912 41.0226 49.9666 41.1404L49.9584 41.176C49.8927 41.4937 49.701 41.7403 49.3889 41.9156C49.0768 42.0909 48.6689 42.1785 48.1652 42.1785C47.615 42.1785 47.1824 42.0744 46.8703 41.869L46.8676 41.8745Z" fill="black"></path>
<path d="M51.0507 41.8991C50.9001 41.7704 50.8262 41.5841 50.8262 41.3376C50.8262 41.2609 50.8371 41.1596 50.8618 41.0309L51.2259 39.3217H50.4922L50.6701 38.4945H51.3956L51.6091 37.4756H52.9259L52.7124 38.4945H53.6377L53.4598 39.3217H52.5345L52.1868 40.9679C52.1813 40.987 52.1786 41.0117 52.1786 41.0391C52.1786 41.1541 52.2415 41.2089 52.3647 41.2089H53.0902L52.904 42.0909H51.7077C51.4175 42.0909 51.1985 42.0279 51.0507 41.8991Z" fill="black"></path>
<path d="M53.5228 40.9596C53.5693 40.7323 53.687 40.5433 53.8704 40.3981C54.0566 40.2502 54.3003 40.1571 54.6041 40.1132L56.1345 39.9078L56.1701 39.7517C56.1783 39.6942 56.1837 39.6531 56.1837 39.623C56.1837 39.5079 56.1427 39.4203 56.0633 39.36C55.9839 39.2997 55.8634 39.2669 55.7074 39.2669C55.5514 39.2669 55.4008 39.308 55.2721 39.3929C55.1434 39.4751 55.0504 39.6065 54.9874 39.7818H53.8622C53.9526 39.3463 54.1689 39.0067 54.5138 38.7711C54.8587 38.5328 55.2885 38.415 55.806 38.415C56.3234 38.415 56.7559 38.5109 57.0488 38.7026C57.3418 38.8944 57.4869 39.1655 57.4869 39.5189C57.4869 39.6038 57.4759 39.7024 57.4513 39.812L56.9667 42.0991H55.7567L55.8908 41.4581C55.7758 41.6772 55.6006 41.8525 55.3652 41.984C55.1298 42.1155 54.8587 42.184 54.5549 42.184C54.2236 42.184 53.9608 42.0991 53.7719 41.9265C53.583 41.7567 53.4872 41.5321 53.4872 41.2582C53.4872 41.1623 53.4954 41.0774 53.5146 41.0007L53.5228 40.9651V40.9596ZM54.7903 41.0938C54.7903 41.1924 54.8231 41.2719 54.8888 41.3294C54.9546 41.3869 55.0476 41.4143 55.1653 41.4143C55.3542 41.4143 55.5212 41.3623 55.6636 41.2582C55.806 41.1541 55.8963 41.0171 55.9346 40.8528L56.0058 40.5241L55.2584 40.6391C55.1215 40.6638 55.0148 40.7049 54.9381 40.7679C54.8615 40.8309 54.8177 40.8966 54.804 40.9678L54.7958 41.0034C54.7903 41.0226 54.7876 41.0527 54.7876 41.0966L54.7903 41.0938Z" fill="black"></path>
<path d="M58.4561 38.4945H59.688L59.5237 39.256C59.6661 38.9957 59.8605 38.7876 60.1068 38.6314C60.3532 38.4781 60.6215 38.4014 60.9117 38.4014C61.2402 38.4014 61.4976 38.4918 61.6837 38.6753C61.8699 38.8588 61.9657 39.1026 61.9657 39.4066C61.9657 39.4915 61.9548 39.5983 61.9301 39.7271L61.4236 42.0909H60.1068L60.5613 39.9626C60.5695 39.8969 60.575 39.8503 60.575 39.8284C60.575 39.7134 60.5394 39.6257 60.471 39.5655C60.4025 39.5052 60.304 39.4723 60.1753 39.4723C59.9891 39.4723 59.8304 39.5271 59.6989 39.6312C59.5648 39.738 59.4772 39.8832 59.4361 40.0694L59.0091 42.0909H57.6923L58.4533 38.4945H58.4561Z" fill="black"></path>
<path d="M62.9238 41.8991C62.7733 41.7704 62.6993 41.5841 62.6993 41.3376C62.6993 41.2609 62.7103 41.1596 62.7349 41.0309L63.099 39.3217H62.3654L62.5433 38.4945H63.2688L63.4823 37.4756H64.7991L64.5856 38.4945H65.5109L65.3329 39.3217H64.4076L64.06 40.9679C64.0545 40.987 64.0517 41.0117 64.0517 41.0391C64.0517 41.1541 64.1147 41.2089 64.2379 41.2089H64.9634L64.7772 42.0909H63.5809C63.2907 42.0909 63.0717 42.0279 62.9238 41.8991Z" fill="black"></path>
<path d="M77.603 14.3582C77.603 13.4981 77.3594 12.8435 76.8775 12.3943C76.393 11.9451 75.6675 11.7205 74.6984 11.7205C73.335 11.7205 72.1688 12.1231 71.2024 12.9312C70.2333 13.7392 69.6064 14.843 69.3189 16.2427V16.1879L66.0365 31.5293H56.0852L59.5292 15.4346C59.6003 14.9334 59.6359 14.5719 59.6359 14.3582C59.6359 13.5338 59.3841 12.8873 58.8831 12.4217C58.3821 11.9561 57.6648 11.7232 56.7313 11.7232C55.368 11.7232 54.2017 12.1177 53.2354 12.9065C52.2662 13.6954 51.6202 14.8101 51.2971 16.2427L48.0694 31.5293H38.1182L43.9274 4.347H53.1806L51.9432 10.0524C53.0191 8.08032 54.4728 6.51906 56.3015 5.36866C58.1302 4.221 60.1205 3.64581 62.2723 3.64581C64.4241 3.64581 66.1351 4.18266 67.5176 5.2591C68.8973 6.33555 69.7323 7.80641 70.0198 9.6717C71.0957 7.84202 72.5493 6.37937 74.3781 5.28375C76.2068 4.18814 78.1615 3.64307 80.2421 3.64307C82.6813 3.64307 84.6004 4.32509 85.9966 5.68913C87.3955 7.05318 88.0936 8.88286 88.0936 11.1809C88.0936 11.8629 88.0033 12.6874 87.8253 13.657L84.0063 31.5265H74.055L77.499 15.4319C77.5702 15.1799 77.6057 14.8211 77.6057 14.3555L77.603 14.3582Z" fill="black"></path>
<path d="M95.3565 4.34668H105.308L99.5505 31.5289H89.5992L95.3565 4.34668Z" fill="black"></path>
<path d="M106.033 22.9699C106.392 21.247 107.271 19.8309 108.67 18.7189C110.069 17.6068 111.916 16.8892 114.211 16.566L125.777 15.0047L126.045 13.8214C126.117 13.3914 126.152 13.0682 126.152 12.8518C126.152 11.989 125.848 11.3262 125.238 10.8605C124.627 10.3949 123.732 10.1593 122.549 10.1593C121.367 10.1593 120.236 10.4743 119.267 11.1016C118.298 11.7288 117.581 12.7094 117.115 14.0351H108.615C109.297 10.7345 110.936 8.18724 113.537 6.39316C116.138 4.59909 119.393 3.70068 123.302 3.70068C127.212 3.70068 130.483 4.42653 132.69 5.88096C134.896 7.33539 135.999 9.38968 135.999 12.0438C135.999 12.6902 135.909 13.427 135.731 14.2515L132.074 31.5294H122.927L123.948 26.684C123.089 28.3356 121.761 29.6641 119.968 30.6666C118.175 31.6718 116.13 32.173 113.836 32.173C111.325 32.173 109.351 31.5266 107.917 30.2365C106.482 28.9437 105.765 27.2592 105.765 25.1775C105.765 24.4599 105.836 23.8135 105.981 23.241L106.033 22.9726V22.9699ZM115.61 23.9915C115.61 24.7448 115.861 25.3364 116.362 25.7664C116.863 26.1964 117.564 26.4128 118.459 26.4128C119.894 26.4128 121.148 26.0184 122.224 25.2296C123.3 24.4407 123.981 23.4191 124.269 22.1618L124.805 19.6857L119.158 20.5458C118.117 20.7266 117.31 21.0498 116.737 21.5154C116.163 21.9811 115.823 22.485 115.716 23.0219L115.662 23.2903C115.626 23.4355 115.607 23.6683 115.607 23.9915H115.61Z" fill="black"></path>
<path d="M10.5639 14.9278C15.4533 15.9413 19.4612 13.813 20.3126 9.70446C21.164 5.5959 18.3497 1.95297 13.3618 0.920349C8.5709 -0.0739238 4.77654 1.99679 3.90598 6.20123C3.05457 10.3098 5.67449 13.9144 10.5639 14.9278Z" fill="#A88FF5"></path>
<path d="M14.246 26.051C15.2589 21.1591 13.1318 17.1491 9.02531 16.2973C4.91887 15.4455 1.27782 18.2612 0.245731 23.2517C-0.745291 28.0451 1.32436 31.8386 5.52662 32.7096C9.63307 33.5615 13.2358 30.9402 14.2487 26.0483L14.246 26.051Z" fill="#669999"></path>
<path d="M25.9685 17.9573C21.0791 16.9439 17.0712 19.0721 16.2198 23.1807C15.3684 27.2892 18.1827 30.9322 23.1707 31.9648C27.9615 32.9563 31.7531 30.8856 32.6237 26.6812C33.4751 22.5726 30.8552 18.968 25.9658 17.9546L25.9685 17.9573Z" fill="#B8753B"></path>
<path d="M22.2701 6.8176C21.2571 11.7095 23.3843 15.7195 27.4907 16.5713C31.5972 17.4232 35.2382 14.6074 36.2703 9.61691C37.2613 4.82358 35.1917 1.03 30.9894 0.158989C26.883 -0.692854 23.2802 1.92841 22.2673 6.82034L22.2701 6.8176Z" fill="#FF7859"></path>
</g>
<defs>
<clipPath id="clip0_1196_4078">
<rect width="136" height="44" fill="white" transform="translate(-0.000610352)"></rect>
</clipPath>
</defs>
</svg>